<svg width="203" height="57" viewBox="0 0 203 57" fill="none" xmlns="http://www.w3.org/2000/svg">
    <path d="M142.442 20.1975C138.292 21.1735 137.553 23.4521 137.896 24.9167C138.24 26.3812 143.912 25.0794 145.631 26.7067C147.35 28.3339 144.333 30.9376 142.442 31.263C140.551 31.5885 139.004 30.6121 139.004 30.6121M132.568 26.7439L136.521 29.3476M124.833 26.9949C125.194 27.5343 126.552 25.5304 127.068 24.4285C127.584 23.3266 130.677 21.2111 132.396 23.1639C133.542 24.4657 132.931 26.9971 132.396 28.54C132.102 29.3878 131.402 30.0338 130.539 30.3914L129.78 30.7059C128.009 31.4393 125.969 30.4767 125.521 28.6966M119.338 30.6121L120.713 25.5676M121.4 20.8485V21.0112M110.648 21.9832C104.806 21.9074 100.335 23.2851 100.163 28.4923C100.093 30.6229 102.092 32.0129 104.319 31.6993C108.028 31.177 110.053 28.5004 110.648 21.9832ZM110.648 21.9832L110.132 5.54772M110.648 21.9832L112.763 30.6578C113.034 31.7716 114.082 32.5605 115.289 32.5605M72.9293 23.1223L78.5832 18.7005C80.0394 17.5616 81.8692 16.9386 83.7579 16.9386M76.0232 31.5842L77.2264 11.4059M58.8349 30.1196C58.8349 31.2786 60.1585 32.0043 61.2203 31.4275L67.5859 27.9696C68.5688 27.4357 68.9615 26.2816 68.4926 25.3049C67.9974 24.2735 66.7212 23.807 65.6224 24.2558L60.9288 26.1727C59.9387 26.577 58.8349 25.8897 58.8349 24.8688C58.8349 24.5793 58.9284 24.2967 59.1028 24.0589L61.8574 20.3035C62.6558 19.2151 63.9667 18.566 65.3664 18.566M47.6625 20.5187L45.9572 26.8525C45.6322 28.0596 46.0457 29.3376 47.0292 30.1652L47.1694 30.2832C48.0082 30.9891 49.1773 31.2255 50.2476 30.9055C51.2158 30.6161 51.9804 29.9073 52.3066 28.9971L55.0535 21.3323M39.4121 27.0278L38.1454 51.762C38.0771 53.0971 37.3619 54.3277 36.2072 55.097L35.9131 55.2929C34.4219 56.2864 32.4169 56.2279 30.993 55.1495C30.3205 54.6402 29.8345 53.9433 29.604 53.1576L29.1248 51.5243C28.5512 49.5692 28.682 47.489 29.4967 45.6122L33.3962 36.6287M1.5 26.8525C2.44498 18.8405 5.74903 18.7798 8.67103 18.9426C11.593 19.1053 11.9798 22.1875 11.9798 23.1639M11.9798 23.1639C10.8502 30.8763 9.93591 32.5749 6.67014 32.7376C3.40436 32.9003 2.07778 30.7858 2.52443 27.7267M11.9798 23.1639C11.5422 26.3401 11.7757 29.7482 13.8892 32.2494C15.2643 33.8767 17.6706 32.2494 17.6706 32.2494M170.107 21.6664C164.218 20.0581 159.279 24.5955 159.966 28.0128C160.247 29.4071 160.366 30.8967 163.232 30.7792C166.098 30.6616 169.973 27.0965 170.107 21.6664ZM170.107 21.6664L170.45 26.3225C170.563 27.8568 171.097 29.3367 171.998 30.6165M170.107 21.6664L170.967 1M174.945 28.0294C174.086 27.7039 176.664 22.6593 178.898 21.3575C181.133 20.0557 182.946 18.8429 185.086 19.2421C187.226 19.6412 177.945 29.1887 174.945 28.0294ZM174.945 28.0294C175.403 28.4329 175.823 28.7919 176.217 29.1118C179.135 31.4801 184.406 32.2639 186.117 29.0057M201.5 17.8673C201.5 17.8673 200.13 18.5745 200.13 19.0627C200.13 19.526 198.278 23.2916 198.089 23.6746L198.059 23.7363C197.831 24.1938 195.076 29.6877 193.758 30.7791C193.682 30.8425 193.604 30.8822 193.526 30.9007C189.185 31.925 190.492 23.2862 190.149 19.0627M151.652 29.3146L151.972 29.5672C152.323 29.8441 152.857 29.7162 153.027 29.3146M92.0949 30.89C92.7951 30.4896 93.3448 30.0204 93.6284 29.4923C94.7008 27.4951 93.2847 22.1695 91.0502 21.8441C88.8157 21.5186 84.0833 24.6455 83.8311 26.2377C83.1328 30.645 88.0654 33.1941 92.0949 30.89ZM34.0113 24.9461L36.1075 22.3457C36.457 21.9121 37 21.6578 37.576 21.6578C38.3658 21.6578 39.0683 22.1331 39.3239 22.8406L40.1276 25.0646C40.7105 26.6778 40.0058 28.456 38.4458 29.308L38.1907 29.4474C37.2381 29.9677 36.0713 29.9931 35.0945 29.5147C33.3118 28.6418 32.7937 26.4566 34.0113 24.9461Z" stroke="black" stroke-width="2" stroke-linecap="round" stroke-linejoin="round"/>
    <path d="M21.5446 20.9196C21.5446 20.9196 20.3592 23.1331 19.904 25.0782C19.6408 26.2028 20.1111 27.9063 20.6246 28.9505C22.4271 32.6155 28.0836 31.127 28.7187 27.1292C28.9639 25.5854 28.9307 23.61 28.6935 20.9863" stroke="black" stroke-width="2" stroke-linecap="round" stroke-linejoin="round"/>
</svg>
