<svg width="228" height="229" viewBox="0 0 228 229" fill="none" xmlns="http://www.w3.org/2000/svg">
    <circle cx="23" cy="24" r="5" fill="black" fill-opacity="0.3"/>
    <circle cx="73" cy="24" r="5" fill="black" fill-opacity="0.3"/>
    <circle cx="123" cy="24" r="5" fill="black" fill-opacity="0.3"/>
    <circle cx="173" cy="24" r="5" fill="black" fill-opacity="0.3"/>
    <circle cx="223" cy="24" r="5" fill="black" fill-opacity="0.3"/>
    <circle cx="23" cy="74" r="5" fill="black" fill-opacity="0.3"/>
    <circle cx="73" cy="74" r="5" fill="black" fill-opacity="0.3"/>
    <circle cx="123" cy="74" r="5" fill="black" fill-opacity="0.3"/>
    <circle cx="173" cy="74" r="5" fill="black" fill-opacity="0.3"/>
    <circle cx="223" cy="74" r="5" fill="black" fill-opacity="0.3"/>
    <circle cx="23" cy="124" r="5" fill="black" fill-opacity="0.3"/>
    <circle cx="73" cy="124" r="5" fill="black" fill-opacity="0.3"/>
    <circle cx="123" cy="124" r="5" fill="black" fill-opacity="0.3"/>
    <circle cx="173" cy="124" r="5" fill="black" fill-opacity="0.3"/>
    <circle cx="223" cy="124" r="5" fill="black" fill-opacity="0.3"/>
    <circle cx="23" cy="174" r="5" fill="black" fill-opacity="0.3"/>
    <circle cx="73" cy="174" r="5" fill="black" fill-opacity="0.3"/>
    <circle cx="123" cy="174" r="5" fill="black" fill-opacity="0.3"/>
    <circle cx="173" cy="174" r="5" fill="black" fill-opacity="0.3"/>
    <circle cx="223" cy="174" r="5" fill="black" fill-opacity="0.3"/>
    <circle cx="23" cy="224" r="5" fill="black" fill-opacity="0.3"/>
    <circle cx="73" cy="224" r="5" fill="black" fill-opacity="0.3"/>
    <circle cx="123" cy="224" r="5" fill="black" fill-opacity="0.3"/>
    <circle cx="173" cy="224" r="5" fill="black" fill-opacity="0.3"/>
    <circle cx="223" cy="224" r="5" fill="black" fill-opacity="0.3"/>
</svg>
